PathFileType	4	(X/Y/Z)	s08c0203.trc
DataRate	CameraRate	NumFrames	NumMarkers	Units	OrigDataRate	OrigDataStartFrame	OrigNumFrames
200	200	6	50	mm	200	250	2000
Frame#	Time	racr			lacr			c7			jug			rlel			rdr			llel			ldr			s2			lic			ric			lasi			rasi			rpsi			lpsi			rgt			lgt			rth1			rth2			rth3			rth4			rlfc			rmfc			rsh1			rsh2			rsh3			rsh4			rlmal			rmmal			rcal			rtoe			rmt5			lth1			lth2			lth4			lth3			llfc			lmfc			llmal			lmmal			lcal			lmt5			lsh1			lsh2			lsh3			lsh4			ltoe			SBIKE			LBIKE			RBIKE			
		X1	Y1	Z1	X2	Y2	Z2	X3	Y3	Z3	X4	Y4	Z4	X5	Y5	Z5	X6	Y6	Z6	X7	Y7	Z7	X8	Y8	Z8	X9	Y9	Z9	X10	Y10	Z10	X11	Y11	Z11	X12	Y12	Z12	X13	Y13	Z13	X14	Y14	Z14	X15	Y15	Z15	X16	Y16	Z16	X17	Y17	Z17	X18	Y18	Z18	X19	Y19	Z19	X20	Y20	Z20	X21	Y21	Z21	X22	Y22	Z22	X23	Y23	Z23	X24	Y24	Z24	X25	Y25	Z25	X26	Y26	Z26	X27	Y27	Z27	X28	Y28	Z28	X29	Y29	Z29	X30	Y30	Z30	X31	Y31	Z31	X32	Y32	Z32	X33	Y33	Z33	X34	Y34	Z34	X35	Y35	Z35	X36	Y36	Z36	X37	Y37	Z37	X38	Y38	Z38	X39	Y39	Z39	X40	Y40	Z40	X41	Y41	Z41	X42	Y42	Z42	X43	Y43	Z43	X44	Y44	Z44	X45	Y45	Z45	X46	Y46	Z46	X47	Y47	Z47	X48	Y48	Z48	X49	Y49	Z49	X50	Y50	Z50	
250	1.2500	481.235428	1382.390833	-59.522715	481.174267	1383.895851	-400.013640	463.519949	1438.476481	-233.160696	445.473169	1283.082805	-223.046938	547.830260	1137.584400	18.309052	757.269085	929.327684	-63.875745	571.897178	1147.544458	-482.826280	757.024543	921.711234	-430.479533	-84.763879	1204.466160	-255.230939	99.870339	1167.214346	-387.347547	68.392332	1213.473848	-83.552972	113.695963	1112.291625	-355.051428	86.673589	1151.760483	-113.623695	-57.054676	1249.932302	-205.607936	-43.052037	1240.871349	-299.663723	-14.338840	1118.489057	-42.179631	4.171524	1059.011914	-418.498736	132.010754	1026.623435	-36.663017	218.549763	1006.446995	-37.347591	281.819901	946.473091	-42.325758	235.561780	1037.514548	-48.805409	377.482415	874.776463	-61.878434	360.616261	862.905783	-169.542592	315.859224	760.154428	-32.450498	311.282222	671.954427	-52.706286	264.352078	599.808614	-57.860023	337.557471	668.788175	-83.918931	223.737198	488.291025	-71.219514	235.696187	513.299203	-156.342665	152.964244	436.103433	-112.501944	440.690012	517.822598	-108.770513	364.381327	460.480535	-42.449082	34.245486	926.591350	-434.501032	70.800198	847.249420	-428.408823	105.546775	853.476822	-417.879351	61.678551	758.931032	-423.765697	76.440665	634.137285	-395.757443	67.772627	613.238432	-294.545090	-4.256470	219.575013	-397.200800	11.488577	244.970403	-310.630214	-65.523782	170.648842	-357.843631	147.616210	186.625623	-419.486949	49.518150	507.585811	-425.049328	51.877521	423.846714	-404.929218	17.186907	343.048861	-409.184422	69.607715	425.004793	-370.542316	214.347964	242.242366	-350.472494	-205.310788	914.548555	-230.029194	-9.018778	80.089039	-427.104993	-8.936991	79.901595	-28.776688	
251	1.2550	481.395726	1382.424302	-59.639361	481.520709	1383.863842	-399.778235	463.608918	1438.375675	-233.083174	445.580222	1283.013527	-222.995036	547.720054	1137.543866	18.367843	757.302696	929.453803	-63.903043	571.466960	1147.241796	-483.249994	756.993311	921.835047	-430.557520	-84.755357	1204.488588	-255.264774	99.888987	1167.138710	-387.326837	68.354951	1213.508607	-83.601457	113.711724	1112.243873	-355.039286	86.654282	1151.759876	-113.623236	-57.022896	1249.937946	-205.649123	-43.040029	1240.869729	-299.697496	-14.369400	1118.521307	-42.191616	4.180746	1058.985311	-418.512690	131.980732	1026.634819	-36.674007	218.544156	1006.471538	-37.346810	281.880357	946.511775	-42.222815	235.546841	1037.535753	-48.779877	377.725930	874.809478	-62.102783	360.625194	862.935295	-169.456594	315.828841	760.194738	-32.417458	311.281635	671.987071	-52.707456	264.202032	599.892035	-57.772323	337.516623	668.804106	-83.881452	223.672076	488.347568	-71.227671	235.631622	513.353226	-156.341817	152.908401	436.161378	-112.517882	440.635621	517.859895	-108.740147	364.319144	460.516376	-42.439935	34.157569	926.400033	-434.266353	70.862023	847.246865	-428.385442	105.601440	853.480228	-417.858436	61.891364	758.768585	-423.120792	76.586637	634.189111	-395.704391	67.862976	613.231323	-294.578444	-4.173748	219.623193	-397.196093	11.632268	244.936710	-310.635897	-65.445460	170.688187	-357.835186	147.682383	186.593087	-419.522899	49.643766	507.571120	-425.017183	51.985144	423.877479	-404.925079	17.292444	343.055791	-409.154221	69.723759	424.993533	-370.497459	214.469049	242.152373	-350.460908	-205.258483	914.610341	-230.041806	-9.013652	80.088673	-427.109546	-8.927981	79.896517	-28.772532	
252	1.2600	481.569231	1382.440488	-59.764737	481.808110	1383.730572	-399.580521	463.715433	1438.245622	-233.029321	445.667794	1282.926066	-222.912790	547.625258	1137.472237	18.430817	757.323197	929.546327	-63.888805	571.111772	1146.959164	-483.687421	756.916620	921.905881	-430.665335	-84.730775	1204.499632	-255.317380	99.928412	1167.084161	-387.369544	68.316457	1213.527002	-83.635860	113.701129	1112.227714	-355.015023	86.664202	1151.782761	-113.631122	-56.977779	1249.956131	-205.694315	-42.998625	1240.867277	-299.758559	-14.375870	1118.533841	-42.211411	4.178088	1058.945940	-418.535481	131.962757	1026.662316	-36.670258	218.517484	1006.502607	-37.339101	281.875318	946.537521	-42.171878	235.529902	1037.567136	-48.748683	377.715461	874.847803	-62.043690	360.637287	862.982231	-169.404425	315.839455	760.220254	-32.394666	311.219866	672.023370	-52.672291	264.183933	599.947920	-57.745257	337.509620	668.849596	-83.871715	223.608989	488.400551	-71.227047	235.586852	513.395735	-156.338341	152.845711	436.216923	-112.521241	440.573861	517.900520	-108.735602	364.244464	460.570169	-42.444882	34.171964	926.377673	-434.268906	70.907045	847.224313	-428.374220	105.641505	853.471585	-417.818266	61.995192	758.733756	-423.080807	76.733720	634.198725	-395.663270	67.986216	613.231569	-294.563280	-4.079770	219.641383	-397.164156	11.726154	244.937156	-310.601983	-65.386056	170.752798	-357.819569	147.752483	186.557242	-419.534315	49.781258	507.576865	-424.993963	52.106409	423.848779	-404.855856	17.403768	343.056738	-409.139246	69.821302	424.999017	-370.457603	214.556730	242.067722	-350.467696	-205.305306	914.553158	-230.048440	-9.013575	80.105551	-427.109380	-8.957273	79.919932	-28.755728	
253	1.2650	481.769336	1382.438557	-59.911202	482.133623	1383.506357	-399.517374	463.836914	1438.129221	-232.977939	445.768941	1282.790223	-222.910137	547.486707	1137.382177	18.478916	757.361705	929.680711	-63.890651	570.759247	1146.652960	-484.230760	756.849632	921.947571	-430.836559	-84.698249	1204.525699	-255.354039	99.934009	1167.025813	-387.384277	68.288713	1213.561803	-83.664421	113.669410	1112.121913	-354.921439	86.638743	1151.793103	-113.635207	-56.917973	1249.960119	-205.758914	-42.960187	1240.863687	-299.809396	-14.402269	1118.576475	-42.222456	4.178586	1058.912279	-418.561639	131.981649	1026.685673	-36.680149	218.518139	1006.528002	-37.323585	281.886151	946.570184	-42.148404	235.549117	1037.597396	-48.750322	377.702624	874.858489	-61.990880	360.650222	862.996299	-169.333636	315.819980	760.259939	-32.355936	311.187748	672.046621	-52.650329	264.134744	599.991656	-57.740999	337.476091	668.868293	-83.846896	223.475229	488.498635	-70.962285	235.538322	513.422776	-156.345499	152.786989	436.279856	-112.550314	440.526274	517.922664	-108.737126	364.177620	460.639587	-42.434861	34.176145	926.354120	-434.275612	70.958936	847.212289	-428.366738	105.675458	853.486433	-417.801222	62.086841	758.728834	-423.063190	76.860173	634.215268	-395.648020	68.068639	613.241626	-294.564881	-3.982692	219.661424	-397.150357	11.837354	244.952288	-310.580225	-65.312046	170.793740	-357.796913	147.844644	186.498502	-419.526120	49.914211	507.599038	-424.984333	52.238447	423.872870	-404.850630	17.529842	343.074989	-409.101728	69.915627	425.005226	-370.418521	214.670116	241.982156	-350.465182	-205.321096	914.586728	-230.078136	-9.012544	80.101287	-427.117685	-8.937453	79.896198	-28.776035	
254	1.2700	481.991034	1382.452870	-60.071512	482.433556	1383.296514	-399.383679	463.993598	1437.983541	-232.864710	445.902833	1282.618217	-222.851574	547.339275	1137.237773	18.539284	757.366342	929.817187	-63.868120	570.373358	1146.357310	-484.826850	756.769826	921.965259	-431.039411	-84.669010	1204.553721	-255.405400	99.976776	1166.956056	-387.435736	68.293437	1213.594543	-83.706133	113.704779	1112.194094	-355.036201	86.673471	1151.807058	-113.630423	-56.843278	1250.012530	-205.828251	-42.909083	1240.881260	-299.884614	-14.397051	1118.612553	-42.244063	4.160699	1058.885003	-418.598115	131.977509	1026.732547	-36.695110	218.518035	1006.636221	-37.308228	281.867136	946.675523	-42.082256	235.547518	1037.639380	-48.736382	377.705232	874.900456	-61.941802	360.749915	864.351896	-172.674274	315.794821	760.264766	-32.317966	311.162756	672.051464	-52.670041	264.078867	600.048837	-57.689939	337.435032	668.886946	-83.805021	223.401954	488.551121	-70.959083	235.469618	513.485157	-156.374947	152.525975	436.609184	-112.298887	440.469084	517.966520	-108.725623	364.119892	460.687109	-42.437850	34.164693	926.332605	-434.309225	70.985863	847.212047	-428.351501	105.698053	853.499796	-417.786825	62.166413	758.705065	-423.036598	76.988528	634.184943	-395.646867	68.146163	613.251841	-294.554818	-3.908265	219.685261	-397.125763	11.957806	244.962086	-310.540763	-65.240118	170.862246	-357.788321	147.923980	186.448673	-419.532885	50.039459	507.620845	-424.963593	52.336296	423.875353	-404.793324	17.627810	343.119105	-409.125610	70.014394	425.039264	-370.402285	214.786192	241.859891	-350.447953	-205.269208	914.561698	-230.049047	-9.016568	80.102681	-427.112355	-8.937455	79.901573	-28.783091	
255	1.2750	482.194760	1382.396766	-60.274488	482.799132	1383.115556	-399.210713	464.217113	1437.823082	-232.767560	445.994564	1282.355802	-222.802400	547.141496	1137.046433	18.577191	757.386461	929.972018	-63.832709	570.069971	1146.053374	-485.361583	756.711881	921.954160	-431.224738	-84.617817	1204.597665	-255.450392	100.054465	1166.918031	-387.517845	68.274657	1213.638392	-83.762640	113.667446	1112.071376	-354.921407	86.654318	1151.849483	-113.622314	-56.740060	1250.053459	-205.898583	-42.844726	1240.893849	-299.927360	-14.401970	1118.725909	-42.264802	4.141698	1058.876638	-418.635684	131.994318	1026.820011	-36.702523	218.533342	1006.672126	-37.306198	281.853789	946.724386	-42.107774	235.573726	1037.693390	-48.729690	377.714609	874.916576	-61.881325	360.892989	865.427569	-175.248686	315.780291	760.295774	-32.302824	311.151907	672.090238	-52.600866	264.037570	600.075614	-57.706913	337.413307	668.916468	-83.784960	223.340893	488.612336	-70.966935	235.424413	513.545219	-156.374588	152.468085	436.696970	-112.349006	440.414099	517.998793	-108.705024	364.031970	460.760011	-42.434627	34.168267	926.320203	-434.325478	71.028946	847.202039	-428.351323	105.737948	853.504434	-417.771941	62.241795	758.717870	-423.038107	77.106424	634.251387	-395.604919	68.229913	613.265286	-294.552704	-3.812244	219.713533	-397.094321	12.072996	244.975958	-310.549851	-65.179123	170.917248	-357.759179	148.011952	186.390808	-419.525794	50.119133	507.633842	-424.956591	52.450304	423.902610	-404.755421	17.737403	343.125452	-409.088417	70.116541	425.028539	-370.362942	214.911827	241.764460	-350.455738	-205.288390	914.557676	-230.092952	-9.009353	80.094007	-427.116917	-8.950599	79.909586	-28.766943	
